<svg xmlns="http://www.w3.org/2000/svg" viewBox="0 0 96 96" role="img" aria-labelledby="title">
  <title id="title">Colisée de Rome</title>
  <path fill="#DDAE6D" stroke="#6B4927" stroke-linejoin="round" stroke-width="4" d="M12 77V25c13-8 58-8 72 0v52c-18 7-54 7-72 0Z"/>
  <path fill="#F7D9A8" d="M17 29c16-6 46-6 62 0v9H17z"/>
  <path fill="none" stroke="#6B4927" stroke-width="3" d="M12 41h72M12 59h72"/>
  <g fill="#6B4927">
    <path d="M19 38v-5a6 6 0 0 1 12 0v5zm17 0v-7a6 6 0 0 1 12 0v7zm17 0v-7a6 6 0 0 1 12 0v7zm17 0v-5a6 6 0 0 1 12 0v5z"/>
    <path d="M18 56v-6a6 6 0 0 1 12 0v6zm17 0v-7a6 6 0 0 1 12 0v7zm17 0v-7a6 6 0 0 1 12 0v7zm17 0v-6a6 6 0 0 1 12 0v6z"/>
    <path d="M18 76v-8a7 7 0 0 1 14 0v10zm19 3V67a7 7 0 0 1 14 0v13zm19 1V67a7 7 0 0 1 14 0v12z"/>
  </g>
</svg>
