<svg xmlns="http://www.w3.org/2000/svg" viewBox="0 0 96 96" role="img" aria-labelledby="title">
  <title id="title">Fer à repasser</title>
  <path fill="#6CC5E9" stroke="#173B57" stroke-linejoin="round" stroke-width="5" d="M13 69h69L68 49H29c-8 0-14 7-16 20Z"/>
  <path fill="none" stroke="#173B57" stroke-linecap="round" stroke-linejoin="round" stroke-width="7" d="M31 48V37c0-10 8-18 18-18h11c8 0 14 6 14 14v13H62V35c0-3-2-5-5-5h-8c-4 0-7 3-7 7v11"/>
  <path fill="#FFF" stroke="#173B57" stroke-linejoin="round" stroke-width="4" d="M11 69h73v9H11z"/>
  <circle cx="30" cy="59" r="3" fill="#173B57"/>
  <circle cx="40" cy="59" r="3" fill="#173B57"/>
  <path fill="none" stroke="#A7DFF4" stroke-linecap="round" stroke-width="4" d="M27 12c-5 5 5 8 0 13M43 7c-5 5 5 8 0 13"/>
</svg>
